<?xml version="1.0" encoding="UTF-8" standalone="no"?>
<!-- Created with Inkscape (http://www.inkscape.org/) -->

<svg
   width="17.260794mm"
   height="16.657114mm"
   viewBox="0 0 17.260794 16.657114"
   version="1.1"
   id="svg5"
   inkscape:version="1.1.2 (0a00cf5339, 2022-02-04)"
   sodipodi:docname="github-icon.svg"
   xmlns:inkscape="http://www.inkscape.org/namespaces/inkscape"
   xmlns:sodipodi="http://sodipodi.sourceforge.net/DTD/sodipodi-0.dtd"
   xmlns="http://www.w3.org/2000/svg"
   xmlns:svg="http://www.w3.org/2000/svg">
  <sodipodi:namedview
     id="namedview7"
     pagecolor="#505050"
     bordercolor="#eeeeee"
     borderopacity="1"
     inkscape:pageshadow="0"
     inkscape:pageopacity="0"
     inkscape:pagecheckerboard="0"
     inkscape:document-units="mm"
     showgrid="false"
     fit-margin-top="0"
     fit-margin-left="0"
     fit-margin-right="0"
     fit-margin-bottom="0"
     inkscape:zoom="6.0150393"
     inkscape:cx="35.494365"
     inkscape:cy="34.663115"
     inkscape:window-width="1920"
     inkscape:window-height="1016"
     inkscape:window-x="0"
     inkscape:window-y="27"
     inkscape:window-maximized="1"
     inkscape:current-layer="layer1"
     showguides="true"
     inkscape:guide-bbox="true" />
  <defs
     id="defs2" />
  <g
     inkscape:label="Camada 1"
     inkscape:groupmode="layer"
     id="layer1"
     transform="translate(-58.585363,-69.723926)">
    <ellipse
       style="fill:none;stroke:#ffffff;stroke-width:0.79375;stroke-linecap:round;stroke-linejoin:round;stroke-miterlimit:4;stroke-dasharray:none"
       id="path591"
       cx="67.215759"
       cy="78.052483"
       rx="8.2335215"
       ry="7.9316816" />
    <path
       style="fill:none;stroke:#ffffff;stroke-width:0.79375;stroke-linecap:butt;stroke-linejoin:miter;stroke-miterlimit:4;stroke-dasharray:none;stroke-opacity:1"
       d="m 65.327082,85.821701 c 0,0 -0.329339,-2.978689 0.570456,-4.185225 -4.798736,-1.171514 -3.891344,-4.757526 -2.716493,-6.259574 -0.21754,-0.69368 -0.147093,-1.404078 0.286678,-2.017421 0.68031,0.03431 1.312666,0.362645 1.921978,0.832261 1.323154,-0.484665 2.612049,-0.433259 3.87654,0 0.5774,-0.598382 1.312751,-0.799465 2.115007,-0.832261 0.290038,1.002296 0.132661,1.497409 -0.0027,2.017421 1.609408,1.898654 1.374899,5.631983 -2.669894,6.259574 0.852914,1.257626 0.518729,4.185225 0.518729,4.185225"
       id="path4256"
       sodipodi:nodetypes="cccccccccc" />
    <path
       style="fill:none;stroke:#ffffff;stroke-width:0.79375;stroke-linecap:round;stroke-linejoin:round;stroke-miterlimit:4;stroke-dasharray:none;stroke-opacity:1"
       d="m 61.791525,81.806584 c 1.42109,0.301275 1.007213,2.268008 3.449395,1.464242"
       id="path8475"
       sodipodi:nodetypes="cc" />
  </g>
</svg>
